# xmcd CD database file
#
# Track frame offsets:
#	150
#	89420
#	93228
#	135094
#	158526
#
# Disc length: 2574 seconds
#
# Revision: 0
# Processed by: cddbd v1.5.2PL0 Copyright (c) Steve Scherf et al.
# Submitted via: CDex 1.51
#
DISCID=2a0a0c05
DTITLE=Art Ensemble Of  Chicago - Full Force
DYEAR=1980
DGENRE=Jazz
TTITLE0=Magg Zelma
TTITLE1=Care Free
TTITLE2=Charlie M
TTITLE3=Old Time Southside Street Dance
TTITLE4=Full Force
EXTD=YEAR: 1980
EXTT0=
EXTT1=
EXTT2=
EXTT3=
EXTT4=
PLAYORDER=
